<svg xmlns="http://www.w3.org/2000/svg" viewBox="0 0 1200 800" role="img" aria-labelledby="title desc">
  <title id="title">Community block party artwork</title>
  <desc id="desc">A warm community gathering illustration for campaign block party promotion.</desc>
  <defs>
    <linearGradient id="bg" x1="0" y1="0" x2="1" y2="1"><stop offset="0" stop-color="#09234a"/><stop offset=".52" stop-color="#0d315f"/><stop offset="1" stop-color="#06162e"/></linearGradient>
    <linearGradient id="sun" x1="0" y1="0" x2="0" y2="1"><stop offset="0" stop-color="#ffe4a2"/><stop offset="1" stop-color="#d7ad4a"/></linearGradient>
  </defs>
  <rect width="1200" height="800" fill="url(#bg)"/>
  <circle cx="205" cy="170" r="90" fill="url(#sun)"/>
  <path d="M0 570 C180 530 330 610 520 565 C705 520 850 600 1200 548 L1200 800 L0 800 Z" fill="#f7e6bf"/>
  <g stroke="#ffe4a2" stroke-width="12" fill="none" opacity=".9">
    <path d="M340 250 L600 145 L860 250"/><path d="M395 250 v230 h410 V250"/>
  </g>
  <g fill="#a92d35"><rect x="430" y="315" width="85" height="165"/><rect x="555" y="315" width="85" height="165"/><rect x="680" y="315" width="85" height="165"/></g>
  <g fill="#061525" opacity=".94">
    <circle cx="250" cy="540" r="38"/><rect x="222" y="580" width="56" height="110" rx="25"/>
    <circle cx="390" cy="535" r="38"/><rect x="362" y="575" width="56" height="115" rx="25"/>
    <circle cx="810" cy="535" r="38"/><rect x="782" y="575" width="56" height="115" rx="25"/>
    <circle cx="950" cy="540" r="38"/><rect x="922" y="580" width="56" height="110" rx="25"/>
  </g>
  <path d="M185 658 H1015" stroke="#a92d35" stroke-width="16" stroke-linecap="round"/>
  <g font-family="Georgia, 'Times New Roman', serif" text-anchor="middle">
    <text x="600" y="95" fill="#fff8e7" font-size="48" font-weight="900" letter-spacing="3">MEET THE COMMUNITY</text>
    <text x="600" y="735" fill="#061525" font-size="42" font-weight="900">Community Block Party · Location TBA</text>
  </g>
</svg>
