<svg xmlns="http://www.w3.org/2000/svg" viewBox="0 0 1600 900" role="img" aria-label="American flag and United States Capitol background"><defs><linearGradient id="g" x1="0" x2="1"><stop offset="0" stop-color="#061525"/><stop offset=".55" stop-color="#0b3775"/><stop offset="1" stop-color="#061525"/></linearGradient><linearGradient id="gold" x1="0" x2="1"><stop offset="0" stop-color="#d7ad4a"/><stop offset="1" stop-color="#ffe4a2"/></linearGradient></defs><rect width="1600" height="900" fill="url(#g)"/><g opacity=".22"><path d="M0 70h1600v70H0zm0 140h1600v70H0zm0 140h1600v70H0zm0 140h1600v70H0zm0 140h1600v70H0zm0 140h1600v70H0" fill="#fff"/><rect width="650" height="490" fill="#061525"/><g fill="#ffe4a2"><circle cx="80" cy="70" r="8"/><circle cx="180" cy="70" r="8"/><circle cx="280" cy="70" r="8"/><circle cx="380" cy="70" r="8"/><circle cx="480" cy="70" r="8"/><circle cx="580" cy="70" r="8"/><circle cx="130" cy="150" r="8"/><circle cx="230" cy="150" r="8"/><circle cx="330" cy="150" r="8"/><circle cx="430" cy="150" r="8"/><circle cx="530" cy="150" r="8"/><circle cx="80" cy="230" r="8"/><circle cx="180" cy="230" r="8"/><circle cx="280" cy="230" r="8"/><circle cx="380" cy="230" r="8"/><circle cx="480" cy="230" r="8"/><circle cx="580" cy="230" r="8"/><circle cx="130" cy="310" r="8"/><circle cx="230" cy="310" r="8"/><circle cx="330" cy="310" r="8"/><circle cx="430" cy="310" r="8"/><circle cx="530" cy="310" r="8"/></g></g><g transform="translate(350 280)" fill="none" stroke="url(#gold)" stroke-width="12" opacity=".88"><path d="M450 0c-92 0-170 66-186 155h372C620 66 542 0 450 0z"/><path d="M248 175h404M290 215h320M250 650h400M210 700h480"/><path d="M300 235v395M385 235v395M470 235v395M555 235v395M640 235v395"/><path d="M180 235h540l-270-90z" fill="rgba(215,173,74,.11)"/></g><text x="800" y="805" fill="#ffe4a2" font-family="Georgia,serif" font-size="72" font-weight="900" text-anchor="middle">WE THE PEOPLE</text></svg>